<svg width="28" height="31" viewBox="0 0 28 31" fill="none" xmlns="http://www.w3.org/2000/svg">
<path d="M2.26665 2.26665V0.799988H19.8667V2.26665H21.3333V3.73332H22.8V5.19999H24.2667V27.2H2.26665V25.7333H0.799988V2.26665H2.26665Z" fill="#ECECEC"/>
<path d="M16.9333 8.13333V2.26666H18.4V3.73333H19.8667V5.2H21.3333V6.66666H22.8V8.13333H16.9333Z" fill="white"/>
<path d="M15.4667 9.6V2.26666H3.73333V3.73333H2.26666V24.2667H3.73333V25.7333H22.8V9.6H15.4667Z" fill="white"/>
<circle cx="19.8667" cy="22.8" r="7.33333" fill="white"/>
<circle cx="19.8667" cy="22.8" r="6.83333" stroke="#89CDED" stroke-opacity="0.67"/>
<path d="M20.0434 19.6899C19.9458 19.5923 19.7875 19.5923 19.6899 19.6899L18.0989 21.2809C18.0012 21.3785 18.0012 21.5368 18.0989 21.6344C18.1965 21.7321 18.3548 21.7321 18.4524 21.6344L19.8666 20.2202L21.2809 21.6344C21.3785 21.7321 21.5368 21.7321 21.6344 21.6344C21.732 21.5368 21.732 21.3785 21.6344 21.2809L20.0434 19.6899ZM20.1166 25.7333L20.1166 19.8667L19.6166 19.8667L19.6166 25.7333L20.1166 25.7333Z" fill="#76C5EB"/>
</svg>
