<svg width="18" height="19" viewBox="0 0 18 19" fill="none" xmlns="http://www.w3.org/2000/svg">
<path d="M7.39998 3.59999V0.666656H10.3333V3.59999H13.2667V2.13332H14.7333V3.59999H16.2V5.06666H14.7333V7.99999H17.6667V10.9333H14.7333V13.8667H16.2V15.3333H14.7333V16.8H13.2667V15.3333H10.3333V18.2667H7.39998V15.3333H4.46665V16.8H2.99998V15.3333H1.53332V13.8667H2.99998V10.9333H0.0666504V7.99999H2.99998V5.06666H1.53332V3.59999H2.99998V2.13332H4.46665V3.59999H7.39998Z" fill="#676767"/>
<path d="M7.40002 7.99999V6.53333H10.3333V7.99999H11.8V10.9333H10.3333V12.4H7.40002V10.9333H5.93335V7.99999H7.40002Z" fill="white"/>
</svg>
