<svg width="30" height="32" viewBox="0 0 30 32" fill="none" xmlns="http://www.w3.org/2000/svg">
<path d="M22.6 0.333344H29.9333V9.13334H28.4666V10.6V12.0667H27V13.5333V15H25.5333V16.4667H24.0666V17.9333H22.6V19.4H21.1333V20.8667H19.6666V26.7333H18.2V28.2H16.7333V29.6667H15.2666V31.1333H13.8V29.6667H12.3333V28.2V26.7333V25.2667H10.8666V26.7333H9.39998V28.2H7.93331V29.6667H2.06664V22.3333H3.53331V20.8667H4.99998V17.9333H0.599976V15H2.06664V13.5333H3.53331V12.0667H4.99998V10.6H10.8666V9.13334H12.3333V7.66668H13.8V6.20001H15.2666V4.73334H16.7333V3.26668H19.6666V1.80001H22.6V0.333344Z" fill="#656565"/>
<path d="M21.1333 3.26666H24.0667V4.73333H25.5333V6.2H27V10.6H25.5333V12.0667H24.0667V15H22.6V16.4667H21.1333V17.9333H19.6667V19.4H18.2V20.8667H16.7333V22.3333H15.2667V23.8H13.8H10.8667V22.3333H12.3333V20.8667H13.8V19.4H15.2667V16.4667H12.3333V17.9333H10.8667V19.4H9.40001V20.8667H7.93334V19.4H6.46667V17.9333V16.4667H7.93334V15H9.40001V13.5333H10.8667V12.0667H12.3333V10.6H13.8V9.13333H15.2667V7.66666H16.7333V6.2H18.2V4.73333H19.6667H21.1333V3.26666Z" fill="white"/>
<path d="M3.53333 28.2V23.8H4.99999V22.3333H6.46666H7.93333V23.8H9.39999V25.2667H7.93333V26.7333H6.46666H4.99999V28.2H3.53333Z" fill="white"/>
<path d="M18.1999 9.13335V7.66669H22.5999V9.13335H24.0666V12.0667H22.5999V13.5334H18.1999V12.0667H16.7333V9.13335H18.1999Z" fill="#656565"/>
<path d="M19.6666 12.0667V9.13333H21.1333V12.0667H19.6666Z" fill="white"/>
<path d="M18.2 10.6L19.6666 9.86667V11.3333L18.2 10.6Z" fill="white"/>
<path d="M22.6 10.6L21.1333 9.86667V11.3333L22.6 10.6Z" fill="white"/>
</svg>
