<svg width="22" height="18" viewBox="0 0 22 18" fill="none" xmlns="http://www.w3.org/2000/svg">
<path d="M22 16H14H12.5C12.5 16 11.9985 14.0588 12.5 13C13.1028 11.7275 15.5 11 15.5 11V9H17.5L18 11C18 11 18.9272 11.3773 19.5 11.5C21.6346 11.9574 22 16 22 16Z" fill="#C4C4C4"/>
<path d="M6.5 10.5V9.5L10 9L11 11C11 11 12.237 11.3331 13 11.5C15.9054 12.1356 16 18 16 18H0C0 18 0.933854 11.7154 4 11C4.95077 10.7782 6.5 10.5 6.5 10.5Z" fill="#C4C4C4"/>
<circle cx="8" cy="5" r="5" fill="#C4C4C4"/>
<circle cx="16.5" cy="6.5" r="3.5" fill="#C4C4C4"/>
</svg>
