<svg width="33" height="33" viewBox="0 0 33 33" fill="none" xmlns="http://www.w3.org/2000/svg">
<circle cx="16.5" cy="16.5" r="15.5" stroke="#434343" stroke-width="2"/>
<circle cx="16.5" cy="16.5" r="11.5" stroke="#656565" stroke-width="2"/>
<circle cx="16.5" cy="16.5" r="8.5" fill="#C4C4C4"/>
<path d="M14.3536 12.6464C14.1583 12.4512 13.8417 12.4512 13.6464 12.6464L10.4645 15.8284C10.2692 16.0237 10.2692 16.3403 10.4645 16.5355C10.6597 16.7308 10.9763 16.7308 11.1716 16.5355L14 13.7071L16.8284 16.5355C17.0237 16.7308 17.3403 16.7308 17.5355 16.5355C17.7308 16.3403 17.7308 16.0237 17.5355 15.8284L14.3536 12.6464ZM14.5 19V13H13.5V19H14.5Z" fill="black"/>
<path d="M18.6464 21.3536C18.8417 21.5488 19.1583 21.5488 19.3536 21.3536L22.5355 18.1716C22.7308 17.9763 22.7308 17.6597 22.5355 17.4645C22.3403 17.2692 22.0237 17.2692 21.8284 17.4645L19 20.2929L16.1716 17.4645C15.9763 17.2692 15.6597 17.2692 15.4645 17.4645C15.2692 17.6597 15.2692 17.9763 15.4645 18.1716L18.6464 21.3536ZM18.5 15V21H19.5V15H18.5Z" fill="black"/>
</svg>
