<svg width="28" height="28" viewBox="0 0 28 28" fill="none" xmlns="http://www.w3.org/2000/svg">
<path d="M13.1133 1.70097C13.487 0.983999 14.513 0.983997 14.8867 1.70097L15.4404 2.763C15.7358 3.32968 16.4797 3.47765 16.9695 3.06715L17.8874 2.29784C18.5071 1.77848 19.4549 2.17109 19.5259 2.97652L19.631 4.16958C19.687 4.80617 20.3177 5.22754 20.9272 5.03573L22.0697 4.67625C22.841 4.43357 23.5664 5.15902 23.3237 5.93029L22.9643 7.07275C22.7725 7.68235 23.1938 8.31297 23.8304 8.36904L25.0235 8.47412C25.8289 8.54507 26.2215 9.49291 25.7022 10.1126L24.9328 11.0305C24.5224 11.5203 24.6703 12.2642 25.237 12.5596L26.299 13.1133C27.016 13.487 27.016 14.513 26.299 14.8867L25.237 15.4404C24.6703 15.7358 24.5224 16.4797 24.9328 16.9695L25.7022 17.8874C26.2215 18.5071 25.8289 19.4549 25.0235 19.5259L23.8304 19.631C23.1938 19.687 22.7725 20.3177 22.9643 20.9272L23.3237 22.0697C23.5664 22.841 22.841 23.5664 22.0697 23.3237L20.9272 22.9643C20.3177 22.7725 19.687 23.1938 19.631 23.8304L19.5259 25.0235C19.4549 25.8289 18.5071 26.2215 17.8874 25.7022L16.9695 24.9328C16.4797 24.5224 15.7358 24.6703 15.4404 25.237L14.8867 26.299C14.513 27.016 13.487 27.016 13.1133 26.299L12.5596 25.237C12.2642 24.6703 11.5203 24.5224 11.0305 24.9328L10.1126 25.7022C9.49291 26.2215 8.54507 25.8289 8.47412 25.0235L8.36904 23.8304C8.31297 23.1938 7.68235 22.7725 7.07275 22.9643L5.93029 23.3237C5.15902 23.5664 4.43357 22.841 4.67625 22.0697L5.03573 20.9272C5.22754 20.3177 4.80617 19.687 4.16958 19.631L2.97652 19.5259C2.17109 19.4549 1.77848 18.5071 2.29784 17.8874L3.06715 16.9695C3.47765 16.4797 3.32968 15.7358 2.763 15.4404L1.70097 14.8867C0.983999 14.513 0.983997 13.487 1.70097 13.1133L2.763 12.5596C3.32968 12.2642 3.47765 11.5203 3.06715 11.0305L2.29784 10.1126C1.77847 9.49291 2.17109 8.54507 2.97652 8.47412L4.16958 8.36904C4.80618 8.31297 5.22754 7.68235 5.03573 7.07275L4.67625 5.93029C4.43357 5.15902 5.15902 4.43357 5.93029 4.67625L7.07275 5.03573C7.68235 5.22754 8.31297 4.80617 8.36904 4.16958L8.47412 2.97652C8.54507 2.17109 9.49291 1.77848 10.1126 2.29784L11.0305 3.06715C11.5203 3.47765 12.2642 3.32968 12.5596 2.763L13.1133 1.70097Z" fill="#C4C4C4"/>
<circle cx="14" cy="14" r="9" fill="#9C9D9C"/>
<circle cx="14" cy="14" r="6" fill="#222222"/>
</svg>
