<svg width="23" height="20" viewBox="0 0 23 20" fill="none" xmlns="http://www.w3.org/2000/svg">
<path d="M22.5 20C20.5002 18.9024 17.5 20 17.5 19C17.5 18.2496 19.7521 16.3732 20.8766 15.4831C20.9962 15.2528 21.2033 15.0915 21.5 15C21.5 15 21.2507 15.187 20.8766 15.4831C20.4811 16.245 21.0446 17.7615 22.5 20Z" fill="#9F9F9F"/>
<circle cx="17" cy="14" r="6" fill="#9F9F9F"/>
<path d="M1.50006 12.5C1.7319 12.3059 1.89452 12.4289 1.98972 12.788L9.92139 17.4538C9.95018 17.4684 9.97638 17.4838 10 17.5L9.92139 17.4538C9.1061 17.0406 6.22151 17.2947 1.50006 18.5C2.05113 15.9701 2.22318 13.6688 1.98972 12.788L1.50006 12.5Z" fill="#C4C4C4"/>
<circle cx="9" cy="9" r="9" fill="#C4C4C4"/>
</svg>
