<svg width="27" height="27" viewBox="0 0 27 27" fill="none" xmlns="http://www.w3.org/2000/svg">
<circle cx="13.5" cy="13.5" r="13.5" fill="#C4C4C4"/>
<circle cx="13.5" cy="13.5" r="10.5" fill="#8D8D8D"/>
<path d="M14.5664 16.1729C14.5664 15.7871 14.4712 15.4844 14.2808 15.2646C14.0903 15.0449 13.7559 14.8374 13.2773 14.6421C12.7988 14.4468 12.3569 14.249 11.9517 14.0488C11.5464 13.8486 11.1973 13.6167 10.9043 13.353C10.6113 13.0894 10.3867 12.7842 10.2305 12.4375C10.0742 12.0908 9.99609 11.6709 9.99609 11.1777C9.99609 10.3525 10.2744 9.67383 10.8311 9.1416C11.3877 8.60449 12.1299 8.29199 13.0576 8.2041V6.65869H14.2222V8.2334C15.1157 8.36523 15.8164 8.73389 16.3242 9.33936C16.8369 9.93994 17.0933 10.7041 17.0933 11.6318H14.6177C14.6177 11.124 14.52 10.7334 14.3247 10.46C14.1294 10.1865 13.8511 10.0498 13.4897 10.0498C13.1675 10.0498 12.916 10.1523 12.7354 10.3574C12.5596 10.5576 12.4717 10.8359 12.4717 11.1924C12.4717 11.5537 12.5742 11.8418 12.7793 12.0566C12.9844 12.2666 13.314 12.4692 13.7681 12.6646C14.2222 12.855 14.6494 13.0552 15.0498 13.2651C15.4551 13.4702 15.8042 13.7046 16.0972 13.9683C16.3901 14.2319 16.6196 14.5396 16.7856 14.8911C16.9517 15.2427 17.0347 15.665 17.0347 16.1582C17.0347 16.9932 16.7686 17.6743 16.2363 18.2017C15.709 18.729 14.9888 19.0366 14.0757 19.1245V20.5967H12.9111V19.1172C11.8467 19.0049 11.0288 18.6411 10.4575 18.0259C9.89111 17.4058 9.60791 16.5903 9.60791 15.5796H12.0762C12.0762 16.1362 12.1982 16.561 12.4424 16.854C12.6914 17.1421 13.043 17.2861 13.4971 17.2861C13.8291 17.2861 14.0903 17.1885 14.2808 16.9932C14.4712 16.793 14.5664 16.5195 14.5664 16.1729Z" fill="black"/>
</svg>
