<svg width="23" height="17" viewBox="0 0 23 17" fill="none" xmlns="http://www.w3.org/2000/svg">
<rect width="23" height="17" rx="2" fill="#C4C4C4"/>
<path d="M20.3536 8.85355C20.5488 8.65829 20.5488 8.34171 20.3536 8.14645L17.1716 4.96447C16.9763 4.7692 16.6597 4.7692 16.4645 4.96447C16.2692 5.15973 16.2692 5.47631 16.4645 5.67157L19.2929 8.5L16.4645 11.3284C16.2692 11.5237 16.2692 11.8403 16.4645 12.0355C16.6597 12.2308 16.9763 12.2308 17.1716 12.0355L20.3536 8.85355ZM13 9H20V8H13V9Z" fill="black"/>
<path d="M2.64645 8.14645C2.45118 8.34171 2.45118 8.65829 2.64645 8.85355L5.82843 12.0355C6.02369 12.2308 6.34027 12.2308 6.53553 12.0355C6.7308 11.8403 6.7308 11.5237 6.53553 11.3284L3.70711 8.5L6.53553 5.67157C6.7308 5.47631 6.7308 5.15973 6.53553 4.96447C6.34027 4.7692 6.02369 4.7692 5.82843 4.96447L2.64645 8.14645ZM10 8H3V9H10V8Z" fill="black"/>
<path d="M11.5 8V8.5V9" stroke="black"/>
</svg>
