<svg width="45" height="40" viewBox="0 0 45 40" fill="none" xmlns="http://www.w3.org/2000/svg">
<path d="M2.5 2.5V0H20V2.5H22.5V5H42.5V7.5H45V37.5H42.5V40H2.5V37.5H0V2.5H2.5Z" fill="#ECC11F"/>
<path d="M2.5 37.5V12.5H42.5V37.5H2.5Z" fill="#FAEBB6"/>
<path d="M42.5 10V7.5H20V5H17.5V2.5H2.5V10H42.5Z" fill="#F6DF8F"/>
<path d="M17.5 5V2.5H20V5H17.5Z" fill="#F4D882"/>
<path d="M20 7.5V5H22.5V7.5H20Z" fill="#F4D882"/>
<path d="M20 2.5V0H22.5V2.5H20Z" fill="#F5DD87"/>
<path d="M22.5 5V2.5H25V5H22.5Z" fill="#F1D35E"/>
<path d="M22.5 7.5V5H25V7.5H22.5Z" fill="#EDC854"/>
<path d="M0 2.5V0H2.5V2.5H0Z" fill="#EFCB45"/>
<path d="M0 40V37.5H2.5V40H0Z" fill="#EFCB45"/>
<path d="M42.5 40V37.5H45V40H42.5Z" fill="#EFCB45"/>
<path d="M42.5 7.5V5H45V7.5H42.5Z" fill="#EFCB45"/>
</svg>
