<svg width="31" height="28" viewBox="0 0 31 28" fill="none" xmlns="http://www.w3.org/2000/svg">
<path d="M1 23.2667V7.13333V1.26666H11.2667L14.2 4.2H25.9333V7.13333V23.2667H1Z" fill="#FAEBB6"/>
<path d="M1 7.13333V23.2667H25.9333V7.13333M1 7.13333H25.9333M1 7.13333V1.26666H11.2667L14.2 4.2H25.9333V7.13333" stroke="#ECC11F"/>
<circle cx="23" cy="20.3333" r="6.83333" fill="white" stroke="#B0DDF3"/>
<path d="M23.1768 17.2232C23.0791 17.1256 22.9209 17.1256 22.8232 17.2232L21.2322 18.8142C21.1346 18.9118 21.1346 19.0701 21.2322 19.1678C21.3299 19.2654 21.4882 19.2654 21.5858 19.1678L23 17.7535L24.4142 19.1678C24.5118 19.2654 24.6701 19.2654 24.7678 19.1678C24.8654 19.0701 24.8654 18.9118 24.7678 18.8142L23.1768 17.2232ZM23.25 23.2667L23.25 17.4L22.75 17.4L22.75 23.2667L23.25 23.2667Z" fill="#76C5EB"/>
</svg>
