<svg width="27" height="29" viewBox="0 0 27 29" fill="none" xmlns="http://www.w3.org/2000/svg">
<path d="M10.6667 0.799988H13.6H16.5334V2.26665H18V3.73332H19.4667V5.19999H20.9334V6.66665H22.4V11.0667H23.8667V15.4667H25.3334V16.9333V18.4H26.8V22.8H25.3334V24.2667H18V27.2H16.5334H15.0667V28.6667H12.1334V27.2H10.6667H9.20002V25.7333V24.2667H3.33336V22.8H1.86669V21.3333H0.400024V18.4H1.86669V16.9333V15.4667H3.33336V11.0667H4.80002V8.13332V6.66665H6.26669V5.19999H7.73336V3.73332H9.20002V2.26665H10.6667V0.799988Z" fill="#656565"/>
<path d="M12.1334 5.19997V3.73331H15.0667V5.19997H16.5334V6.66664H18V8.13331H19.4667V9.59997H20.9334V15.4666H22.4V16.9333H4.80005V15.4666H6.26672V9.59997H7.73338V8.13331H9.20005V6.66664H10.6667V5.19997H12.1334Z" fill="white"/>
<path d="M3.33337 21.3333V18.4H23.8667V21.3333H3.33337Z" fill="white"/>
<path d="M10.6667 24.2667V22.8H16.5334V24.2667H15.0667V25.7333H12.1334V24.2667H10.6667Z" fill="white"/>
</svg>
